<?xml version="1.0" encoding="UTF-8"?>
<svg id="Layer_1" xmlns="http://www.w3.org/2000/svg" version="1.1" viewBox="0 0 1080 1080">
  <!-- Generator: Adobe Illustrator 30.1.0, SVG Export Plug-In . SVG Version: 2.1.1 Build 136)  -->
  <defs>
    <style>
      .st0 {
        fill: #e98a2f;
      }

      .st1 {
        fill: #fff;
      }
    </style>
  </defs>
  <path class="st0" d="M540,0h0C838.04,0,1080,241.96,1080,540h0c0,298.04-241.97,540-540,540h0C241.97,1080,0,838.04,0,540H0C0,241.97,241.97,0,540,0Z"/>
  <path class="st1" d="M291.08,863.91V215.59h244.14s227.87-4.32,272.71,155.14c49.58,176.34-135.11,350.53-228.72,346.02-121.37-5.85-148.02-200.39-57.02-311.4,29.37-35.83,72.17-42.41,94.61-37.3,47.11,10.73,58.05,52.47,17.79,67.26-42.77,15.7-29.49-44.75-47.1,14.15-3,10.02-4.45,20.73-3.76,31.76.98,15.57,5.65,28.61,16.1,34.78,24.87,14.7,56.76-2.54,76.14-47.58,56.21-122.51-133.4-175.4-244.35-34.88-109.41,138.57-113.24,362.6,110.88,337.85,144.45-15.95,223.93-138.45,251.15-200.01,0,0,75.51,80.81,32.84,176.84-42.67,96.02-146,110.92-198.39,114.24-52.39,3.31-337,1.47-337,1.47Z"/>
</svg>